<svg width="116" height="116" viewBox="0 0 116 116" fill="none" xmlns="http://www.w3.org/2000/svg">
<path d="M91.1766 67.068H75.0947C73.8628 67.068 72.8639 68.067 72.8639 69.2989V74.7297C72.8639 76.7796 71.1957 78.4478 69.1459 78.4478C67.096 78.4478 65.4278 76.7796 65.4278 74.7297V70.8877C65.8393 70.4837 66.0946 69.921 66.0946 69.2989C66.0946 68.067 65.0957 67.068 63.8637 67.068H63.197H48.9345V55.0203H52.2163C56.7263 55.0203 60.396 51.3506 60.396 46.8406C60.396 42.3306 56.7276 38.6609 52.2163 38.6609H48.9345V24.8285C48.9345 23.5966 47.9356 22.5977 46.7037 22.5977H11.4962C5.15694 22.5977 0 27.7534 0 34.0902V69.2976V104.508C0 110.844 5.15694 116 11.4962 116H46.7037H81.9112C88.2505 116 93.4074 110.844 93.4074 104.508V69.2976C93.4074 68.067 92.4085 67.068 91.1766 67.068ZM4.46166 34.0914C4.46166 30.2135 7.61705 27.0593 11.4962 27.0593H44.4729V40.893C44.4729 42.1249 45.4718 43.1238 46.7037 43.1238H52.2163C54.2662 43.1238 55.9344 44.7919 55.9344 46.8418C55.9344 48.8917 54.2662 50.5599 52.2163 50.5599H46.7037C45.4718 50.5599 44.4729 51.5588 44.4729 52.7907V67.0693H32.647V63.7887C32.647 59.2787 28.9785 55.609 24.4673 55.609C19.9573 55.609 16.2875 59.2787 16.2875 63.7887V67.068H4.46166V34.0914ZM4.46166 104.509V71.5297H18.5184C19.7503 71.5297 20.7492 70.5308 20.7492 69.2989V63.7887C20.7492 61.7388 22.4174 60.0707 24.4673 60.0707C26.5171 60.0707 28.1853 61.7388 28.1853 63.7887V69.2989C28.1853 70.5308 29.1842 71.5297 30.4161 71.5297H44.4729V83.3556H41.1911C36.6811 83.3556 33.0113 87.0253 33.0113 91.5353C33.0113 96.0465 36.6798 99.7163 41.1911 99.7163H44.4729V111.541H11.4962C7.61705 111.541 4.46166 108.387 4.46166 104.509ZM88.9457 104.509C88.9457 108.387 85.7903 111.541 81.9112 111.541H48.9345V97.4842C48.9345 96.2523 47.9356 95.2534 46.7037 95.2534H41.1911C39.1412 95.2534 37.473 93.584 37.473 91.5341C37.473 89.4842 39.1412 87.816 41.1911 87.816H46.7037C47.9356 87.816 48.9345 86.8171 48.9345 85.5852V71.5297H60.9661V74.7297C60.9661 79.2397 64.6346 82.9094 69.1459 82.9094C73.6559 82.9094 77.3256 79.2397 77.3256 74.7297V71.5297H88.9457V104.509Z" fill="white"/>
<path d="M104.507 0H69.2994C68.0675 0 67.0686 0.998917 67.0686 2.23083V17.9929C67.0686 19.2248 68.0675 20.2237 69.2994 20.2237H76.795C78.8449 20.2237 80.5131 21.8919 80.5131 23.9418C80.5131 25.9917 78.8449 27.6611 76.795 27.6611H69.2994C68.0675 27.6611 67.0686 28.66 67.0686 29.8919V46.7037C67.0686 47.9356 68.0675 48.9345 69.2994 48.9345H83.3561V52.2163C83.3561 56.7263 87.0246 60.396 91.5359 60.396C96.0459 60.396 99.7156 56.7263 99.7156 52.2163V48.9345H113.772C115.004 48.9345 116.003 47.9356 116.003 46.7037V11.4962C116.003 5.15694 110.846 0 104.507 0ZM111.541 44.4729H97.4847C96.2528 44.4729 95.2539 45.4718 95.2539 46.7037V52.2163C95.2539 54.2662 93.5857 55.9344 91.5359 55.9344C89.486 55.9344 87.8178 54.2662 87.8178 52.2163V46.7037C87.8178 45.4718 86.8189 44.4729 85.587 44.4729H71.5303V32.1215H76.795C81.305 32.1215 84.9747 28.4518 84.9747 23.9405C84.9747 19.4305 81.3063 15.7608 76.795 15.7608H71.5303V4.46166H104.507C108.386 4.46166 111.541 7.61705 111.541 11.4962V44.4729Z" fill="white"/>
</svg>
