<svg width="116" height="134" viewBox="0 0 116 134" fill="none" xmlns="http://www.w3.org/2000/svg">
<path d="M57.59 15.505C58.1775 15.505 58.7408 15.2716 59.1562 14.8562C59.5716 14.4408 59.805 13.8775 59.805 13.29V2.215C59.805 1.62755 59.5716 1.06415 59.1562 0.648758C58.7408 0.233365 58.1775 0 57.59 0C57.0025 0 56.4391 0.233365 56.0238 0.648758C55.6084 1.06415 55.375 1.62755 55.375 2.215V13.29C55.375 13.8775 55.6084 14.4408 56.0238 14.8562C56.4391 15.2716 57.0025 15.505 57.59 15.505Z" fill="white"/>
<path d="M24.6996 27.8309C24.9039 28.0424 25.1484 28.2112 25.4186 28.3273C25.6888 28.4434 25.9795 28.5045 26.2736 28.507C26.5677 28.5096 26.8594 28.4535 27.1316 28.3422C27.4038 28.2308 27.6511 28.0663 27.8591 27.8583C28.0671 27.6504 28.2315 27.4031 28.3429 27.1308C28.4543 26.8586 28.5103 26.567 28.5078 26.2729C28.5052 25.9788 28.4441 25.6881 28.328 25.4179C28.2119 25.1476 28.0432 24.9032 27.8316 24.6989L19.9994 16.8666C19.7951 16.6551 19.5506 16.4863 19.2804 16.3703C19.0102 16.2542 18.7195 16.1931 18.4254 16.1905C18.1313 16.188 17.8396 16.244 17.5674 16.3554C17.2952 16.4667 17.0479 16.6312 16.8399 16.8392C16.6319 17.0472 16.4675 17.2945 16.3561 17.5667C16.2447 17.8389 16.1887 18.1306 16.1912 18.4247C16.1938 18.7188 16.2549 19.0094 16.371 19.2797C16.4871 19.5499 16.6558 19.7943 16.8674 19.9987L24.6996 27.8309Z" fill="white"/>
<path d="M2.215 59.805H13.29C13.8775 59.805 14.4408 59.5716 14.8562 59.1562C15.2716 58.7408 15.505 58.1775 15.505 57.59C15.505 57.0025 15.2716 56.4391 14.8562 56.0238C14.4408 55.6084 13.8775 55.375 13.29 55.375H2.215C1.62755 55.375 1.06415 55.6084 0.648759 56.0238C0.233366 56.4391 0 57.0025 0 57.59C0 58.1775 0.233366 58.7408 0.648759 59.1562C1.06415 59.5716 1.62755 59.805 2.215 59.805Z" fill="white"/>
<path d="M18.4333 98.9596C19.0207 98.9595 19.584 98.7261 19.9993 98.3106L27.8315 90.4784C28.235 90.0606 28.4583 89.5011 28.4532 88.9204C28.4482 88.3396 28.2152 87.7841 27.8045 87.3734C27.3939 86.9627 26.8383 86.7297 26.2575 86.7247C25.6768 86.7196 25.1173 86.9429 24.6995 87.3464L16.8673 95.1786C16.5576 95.4884 16.3467 95.883 16.2613 96.3126C16.1759 96.7422 16.2197 97.1875 16.3873 97.5922C16.5549 97.9969 16.8388 98.3428 17.2029 98.5862C17.5671 98.8296 17.9953 98.9595 18.4333 98.9596Z" fill="white"/>
<path d="M96.7466 98.9599C97.1846 98.9598 97.6128 98.8298 97.9769 98.5864C98.3411 98.343 98.6249 97.9971 98.7925 97.5924C98.9601 97.1878 99.004 96.7425 98.9186 96.3129C98.8331 95.8833 98.6223 95.4886 98.3126 95.1789L90.4803 87.3466C90.276 87.1351 90.0316 86.9663 89.7614 86.8502C89.4911 86.7342 89.2005 86.673 88.9064 86.6705C88.6123 86.6679 88.3206 86.724 88.0484 86.8354C87.7762 86.9467 87.5288 87.1112 87.3209 87.3192C87.1129 87.5271 86.9484 87.7744 86.8371 88.0467C86.7257 88.3189 86.6696 88.6106 86.6722 88.9047C86.6748 89.1988 86.7359 89.4894 86.852 89.7597C86.968 90.0299 87.1368 90.2743 87.3483 90.4786L95.1806 98.3109C95.5959 98.7263 96.1592 98.9597 96.7466 98.9599Z" fill="white"/>
<path d="M101.89 59.805H112.965C113.553 59.805 114.116 59.5716 114.531 59.1562C114.947 58.7408 115.18 58.1775 115.18 57.59C115.18 57.0025 114.947 56.4391 114.531 56.0238C114.116 55.6084 113.553 55.375 112.965 55.375H101.89C101.303 55.375 100.739 55.6084 100.324 56.0238C99.9084 56.4391 99.675 57.0025 99.675 57.59C99.675 58.1775 99.9084 58.7408 100.324 59.1562C100.739 59.5716 101.303 59.805 101.89 59.805Z" fill="white"/>
<path d="M88.9142 28.4799C89.5016 28.4798 90.0649 28.2463 90.4802 27.8309L98.3125 19.9987C98.524 19.7943 98.6928 19.5499 98.8089 19.2797C98.925 19.0094 98.9861 18.7188 98.9886 18.4247C98.9912 18.1306 98.9351 17.8389 98.8238 17.5667C98.7124 17.2945 98.5479 17.0472 98.3399 16.8392C98.132 16.6312 97.8847 16.4667 97.6124 16.3554C97.3402 16.244 97.0486 16.188 96.7544 16.1905C96.4603 16.1931 96.1697 16.2542 95.8995 16.3703C95.6292 16.4863 95.3848 16.6551 95.1805 16.8666L87.3482 24.6989C87.0386 25.0087 86.8277 25.4033 86.7422 25.8329C86.6568 26.2625 86.7007 26.7078 86.8683 27.1125C87.0359 27.5171 87.3197 27.863 87.6839 28.1064C88.0481 28.3498 88.4762 28.4798 88.9142 28.4799Z" fill="white"/>
<path d="M42.4726 92.144L41.199 99.8699C41.1469 100.187 41.1645 100.512 41.2504 100.821C41.3363 101.131 41.4885 101.418 41.6965 101.663C41.9045 101.908 42.1633 102.104 42.4549 102.239C42.7465 102.374 43.0639 102.444 43.3852 102.444H43.7551L44.2734 107.472H43.3874C42.7999 107.472 42.2366 107.705 41.8212 108.121C41.4058 108.536 41.1724 109.099 41.1724 109.687V119.167C41.1724 119.754 41.4058 120.318 41.8212 120.733C42.2366 121.149 42.7999 121.382 43.3874 121.382H45.7065L45.9125 123.409C45.951 124.774 46.2923 126.114 46.9117 127.332C47.5311 128.55 48.4131 129.615 49.4942 130.45C51.7947 132.274 54.6542 133.249 57.59 133.21C63.978 133.21 69.1833 128.824 69.263 123.409L69.469 121.382H71.7881C72.3756 121.382 72.939 121.149 73.3544 120.733C73.7698 120.318 74.0031 119.754 74.0031 119.167V109.687C74.0031 109.099 73.7698 108.536 73.3544 108.121C72.939 107.705 72.3756 107.472 71.7881 107.472H70.9021L71.4204 102.444H71.7903C72.1116 102.444 72.4291 102.374 72.7206 102.239C73.0122 102.104 73.271 101.908 73.479 101.663C73.687 101.418 73.8392 101.131 73.9251 100.821C74.0111 100.512 74.0286 100.187 73.9765 99.8699L72.7074 92.144C80.6383 88.6723 87.1327 82.5768 91.0994 74.8814C95.0661 67.1861 96.2633 58.36 94.4899 49.886C92.7164 41.4121 88.0804 33.8068 81.3608 28.3479C74.6412 22.889 66.2475 19.9092 57.59 19.9092C48.9325 19.9092 40.5387 22.889 33.8191 28.3479C27.0995 33.8068 22.4635 41.4121 20.6901 49.886C18.9167 58.36 20.1139 67.1861 24.0805 74.8814C28.0472 82.5768 34.5416 88.6723 42.4726 92.144ZM69.5731 111.902V116.952H45.6068V111.902H69.5731ZM64.8419 123.061C64.8419 123.136 64.8419 123.212 64.8419 123.282C64.8419 126.313 61.5925 128.776 57.5988 128.776C55.6882 128.804 53.8243 128.184 52.3116 127.017C51.7268 126.581 51.2475 126.019 50.909 125.372C50.5705 124.726 50.3814 124.012 50.3558 123.282C50.3558 123.207 50.3558 123.132 50.3558 123.061L50.1808 121.382H65.0346L64.8419 123.061ZM66.45 107.472H48.73L48.2139 102.444H66.9572L66.45 107.472ZM50.945 66.45H46.515C45.6388 66.45 44.7823 66.1902 44.0538 65.7034C43.3253 65.2166 42.7575 64.5248 42.4222 63.7153C42.0869 62.9058 41.9992 62.0151 42.1701 61.1557C42.341 60.2964 42.7629 59.5071 43.3825 58.8875C44.002 58.268 44.7914 57.8461 45.6507 57.6751C46.5101 57.5042 47.4008 57.5919 48.2103 57.9272C49.0197 58.2625 49.7116 58.8303 50.1984 59.5588C50.6852 60.2873 50.945 61.1438 50.945 62.02V66.45ZM57.59 24.365C65.3676 24.3614 72.9005 27.0838 78.8789 32.0588C84.8572 37.0338 88.903 43.9466 90.3126 51.5954C91.7222 59.2442 90.4066 67.1452 86.5944 73.9245C82.7823 80.7038 76.7148 85.9326 69.4469 88.7019C68.9686 88.8842 68.5682 89.2266 68.3138 89.6708C68.0594 90.115 67.9667 90.6336 68.0514 91.1384L69.1789 98.0226H64.235V90.815C64.235 90.2275 64.0016 89.6641 63.5862 89.2488C63.1708 88.8334 62.6074 88.6 62.02 88.6C61.4325 88.6 60.8691 88.8334 60.4537 89.2488C60.0383 89.6641 59.805 90.2275 59.805 90.815V98.0137H55.375V70.88H59.805V73.095C59.805 73.6825 60.0383 74.2458 60.4537 74.6612C60.8691 75.0766 61.4325 75.31 62.02 75.31C62.6074 75.31 63.1708 75.0766 63.5862 74.6612C64.0016 74.2458 64.235 73.6825 64.235 73.095V70.88H68.665C70.4173 70.88 72.1303 70.3604 73.5873 69.3868C75.0443 68.4133 76.18 67.0295 76.8505 65.4106C77.5211 63.7916 77.6966 62.0102 77.3547 60.2915C77.0129 58.5728 76.169 56.9941 74.9299 55.755C73.6908 54.5159 72.1121 53.6721 70.3935 53.3302C68.6748 52.9884 66.8933 53.1638 65.2744 53.8344C63.6554 54.505 62.2717 55.6406 61.2982 57.0976C60.3246 58.5547 59.805 60.2677 59.805 62.02V66.45H55.375V62.02C55.375 60.2677 54.8553 58.5547 53.8818 57.0976C52.9082 55.6406 51.5245 54.505 49.9056 53.8344C48.2866 53.1638 46.5051 52.9884 44.7865 53.3302C43.0678 53.6721 41.4891 54.5159 40.25 55.755C39.0109 56.9941 38.1671 58.5728 37.8252 60.2915C37.4834 62.0102 37.6588 63.7916 38.3294 65.4106C39 67.0295 40.1356 68.4133 41.5926 69.3868C43.0496 70.3604 44.7626 70.88 46.515 70.88H50.945V98.0137H46.0011L47.1285 91.1295C47.2133 90.6247 47.1206 90.1061 46.8662 89.6619C46.6118 89.2177 46.2114 88.8754 45.7331 88.693C38.4711 85.9198 32.4099 80.6905 28.6025 73.9133C24.795 67.1361 23.4817 59.2393 24.8907 51.5946C26.2998 43.9499 30.3422 37.0403 36.3157 32.066C42.2892 27.0916 49.8165 24.3669 57.59 24.365ZM64.235 66.45V62.02C64.235 61.1438 64.4948 60.2873 64.9816 59.5588C65.4683 58.8303 66.1602 58.2625 66.9697 57.9272C67.7792 57.5919 68.6699 57.5042 69.5292 57.6751C70.3886 57.8461 71.1779 58.268 71.7975 58.8875C72.417 59.5071 72.8389 60.2964 73.0099 61.1557C73.1808 62.0151 73.0931 62.9058 72.7578 63.7153C72.4225 64.5248 71.8547 65.2166 71.1262 65.7034C70.3976 66.1902 69.5411 66.45 68.665 66.45H64.235Z" fill="white"/>
<path d="M57.59 33.2249C64.0626 33.2325 70.2679 35.8071 74.8447 40.384C79.4215 44.9608 81.9961 51.1661 82.0037 57.6386C82.0037 58.2261 82.2371 58.7895 82.6525 59.2049C83.0679 59.6203 83.6313 59.8536 84.2187 59.8536C84.8062 59.8536 85.3696 59.6203 85.785 59.2049C86.2004 58.7895 86.4337 58.2261 86.4337 57.6386C86.4249 49.9915 83.3832 42.6601 77.9759 37.2528C72.5685 31.8454 65.2371 28.8037 57.59 28.7949C57.0025 28.7949 56.4391 29.0283 56.0238 29.4437C55.6084 29.8591 55.375 30.4225 55.375 31.0099C55.375 31.5974 55.6084 32.1608 56.0238 32.5762C56.4391 32.9916 57.0025 33.2249 57.59 33.2249Z" fill="white"/>
<path d="M48.7299 35.4398C49.9532 35.4398 50.9449 34.4481 50.9449 33.2248C50.9449 32.0015 49.9532 31.0098 48.7299 31.0098C47.5066 31.0098 46.5149 32.0015 46.5149 33.2248C46.5149 34.4481 47.5066 35.4398 48.7299 35.4398Z" fill="white"/>
<path d="M62.0199 84.1702C63.2432 84.1702 64.2349 83.1785 64.2349 81.9552C64.2349 80.7319 63.2432 79.7402 62.0199 79.7402C60.7966 79.7402 59.8049 80.7319 59.8049 81.9552C59.8049 83.1785 60.7966 84.1702 62.0199 84.1702Z" fill="white"/>
</svg>
