<svg width="116" height="116" viewBox="0 0 116 116" fill="none" xmlns="http://www.w3.org/2000/svg">
<path d="M104.4 0H21.2667C18.1912 0.00347704 15.2427 1.22673 13.0681 3.4014C10.8934 5.57607 9.67014 8.52456 9.66667 11.6V90.8667H13.5333V11.6C13.5356 9.5497 14.3511 7.58403 15.8009 6.13425C17.2507 4.68447 19.2164 3.86897 21.2667 3.86667H95.7632C93.8537 5.98964 92.798 8.7446 92.8 11.6V104.4C92.8 106.451 91.9852 108.418 90.535 109.868C89.0847 111.319 87.1177 112.133 85.0667 112.133C83.0157 112.133 81.0487 111.319 79.5984 109.868C78.1481 108.418 77.3333 106.451 77.3333 104.4V96.6667C77.3333 96.4128 77.2833 96.1614 77.1862 95.9268C77.089 95.6922 76.9466 95.4791 76.7671 95.2996C76.5876 95.12 76.3744 94.9776 76.1399 94.8805C75.9053 94.7833 75.6539 94.7333 75.4 94.7333H1.93333C1.67944 94.7333 1.42804 94.7833 1.19347 94.8805C0.958904 94.9776 0.745772 95.12 0.566244 95.2996C0.386716 95.4791 0.244308 95.6922 0.147151 95.9268C0.0499948 96.1614 -7.29888e-06 96.4128 7.99131e-10 96.6667V104.4C0.00347704 107.475 1.22673 110.424 3.4014 112.599C5.57607 114.773 8.52456 115.997 11.6 116H85.0667C88.1421 115.997 91.0906 114.773 93.2653 112.599C95.4399 110.424 96.6632 107.475 96.6667 104.4V11.6C96.6667 9.54899 97.4814 7.58199 98.9317 6.13171C100.382 4.68143 102.349 3.86667 104.4 3.86667C106.451 3.86667 108.418 4.68143 109.868 6.13171C111.319 7.58199 112.133 9.54899 112.133 11.6V23.2H100.533V27.0667H114.067C114.321 27.0667 114.572 27.0167 114.807 26.9195C115.041 26.8224 115.254 26.68 115.434 26.5004C115.613 26.3209 115.756 26.1078 115.853 25.8732C115.95 25.6386 116 25.3872 116 25.1333V11.6C115.997 8.52456 114.773 5.57607 112.599 3.4014C110.424 1.22673 107.475 0.00347704 104.4 0ZM11.6 112.133C9.5497 112.131 7.58403 111.316 6.13425 109.866C4.68447 108.416 3.86897 106.45 3.86667 104.4V98.6H73.4667V104.4C73.4642 107.255 74.519 110.01 76.4276 112.133H11.6Z" fill="white"/>
<path d="M27.0668 32.8666V42.5333H23.2002C22.7532 42.5333 22.3201 42.6881 21.9744 42.9715C21.6288 43.2549 21.392 43.6492 21.3043 44.0875L19.371 53.7541C19.3149 54.0346 19.3218 54.324 19.3911 54.6016C19.4604 54.8791 19.5904 55.1377 19.7717 55.3589C19.9531 55.5801 20.1812 55.7584 20.4398 55.8807C20.6983 56.0031 20.9808 56.0666 21.2668 56.0666H27.0668V61.8666C27.0685 63.4043 27.6802 64.8786 28.7675 65.9659C29.8548 67.0533 31.3291 67.6649 32.8668 67.6666H48.3335C49.8712 67.6649 51.3455 67.0533 52.4328 65.9659C53.5201 64.8786 54.1318 63.4043 54.1335 61.8666V59.0346L64.3854 52.1999H67.6668V54.1333C67.6668 54.3872 67.7168 54.6386 67.814 54.8731C67.9111 55.1077 68.0535 55.3208 68.2331 55.5004C68.4126 55.6799 68.6257 55.8223 68.8603 55.9195C69.0949 56.0166 69.3463 56.0666 69.6002 56.0666H75.4002V72.2536C75.2638 72.1962 75.1283 72.1359 74.9948 72.0691L74.3314 71.7374C72.8613 71.0067 71.2419 70.6264 69.6002 70.6264C67.9584 70.6264 66.339 71.0067 64.8689 71.7374C64.5477 71.898 64.2777 72.1448 64.0889 72.4502C63.9001 72.7556 63.8001 73.1076 63.8002 73.4666V77.3333H59.6888C59.258 75.6743 58.2892 74.205 56.9341 73.1555C55.579 72.106 53.9141 71.5354 52.2002 71.5333H44.4668C42.4158 71.5333 40.4488 72.348 38.9985 73.7983C37.5482 75.2486 36.7335 77.2156 36.7335 79.2666C36.7335 81.3176 37.5482 83.2846 38.9985 84.7349C40.4488 86.1852 42.4158 86.9999 44.4668 86.9999H52.2002C53.9141 86.9978 55.579 86.4272 56.9341 85.3777C58.2892 84.3282 59.258 82.8589 59.6888 81.1999H63.8002V85.0666C63.8001 85.3205 63.8502 85.5719 63.9473 85.8065C64.0445 86.041 64.1869 86.2542 64.3664 86.4337C64.5459 86.6132 64.7591 86.7556 64.9936 86.8528C65.2282 86.9499 65.4796 86.9999 65.7335 86.9999H83.1335C83.3874 86.9999 83.6388 86.9499 83.8733 86.8528C84.1079 86.7556 84.321 86.6132 84.5006 86.4337C84.6801 86.2542 84.8225 86.041 84.9197 85.8065C85.0168 85.5719 85.0668 85.3205 85.0668 85.0666V73.4666C85.0668 73.1603 84.994 72.8583 84.8544 72.5856C84.7148 72.313 84.5124 72.0773 84.2639 71.8982C84.0154 71.7191 83.7279 71.6016 83.425 71.5554C83.1222 71.5092 82.8127 71.5356 82.5221 71.6325L80.1196 72.4333C79.8404 72.5257 79.5556 72.6 79.2668 72.6557V56.0666H83.1335C83.3874 56.0666 83.6388 56.0166 83.8733 55.9195C84.1079 55.8223 84.321 55.6799 84.5006 55.5004C84.6801 55.3208 84.8225 55.1077 84.9197 54.8731C85.0168 54.6386 85.0668 54.3872 85.0668 54.1333V44.4666C85.0668 44.2127 85.0168 43.9613 84.9197 43.7267C84.8225 43.4922 84.6801 43.279 84.5006 43.0995C84.321 42.92 84.1079 42.7776 83.8733 42.6804C83.6388 42.5833 83.3874 42.5333 83.1335 42.5333H69.6002C69.3463 42.5333 69.0949 42.5833 68.8603 42.6804C68.6257 42.7776 68.4126 42.92 68.2331 43.0995C68.0535 43.279 67.9111 43.4922 67.814 43.7267C67.7168 43.9613 67.6668 44.2127 67.6668 44.4666V48.3333H64.3854L53.2725 40.9247C52.955 40.7129 52.5818 40.5999 52.2002 40.5999C51.8185 40.5999 51.4453 40.7129 51.1278 40.9247L40.0149 48.3333H37.9318L38.6293 44.8457C38.6854 44.5653 38.6785 44.2758 38.6092 43.9983C38.5399 43.7208 38.4099 43.4621 38.2286 43.2409C38.0472 43.0197 37.8191 42.8415 37.5605 42.7191C37.302 42.5968 37.0195 42.5333 36.7335 42.5333H30.9335V32.8666C30.9341 32.354 31.1379 31.8626 31.5004 31.5002C31.8628 31.1377 32.3542 30.9339 32.8668 30.9333H40.8449C41.2756 32.5922 42.2444 34.0615 43.5995 35.111C44.9546 36.1606 46.6195 36.7311 48.3335 36.7333H56.0668C58.1178 36.7333 60.0848 35.9185 61.5351 34.4682C62.9854 33.0179 63.8002 31.0509 63.8002 28.9999C63.8002 26.9489 62.9854 24.9819 61.5351 23.5316C60.0848 22.0814 58.1178 21.2666 56.0668 21.2666H48.3335C46.6195 21.2688 44.9546 21.8393 43.5995 22.8888C42.2444 23.9383 41.2756 25.4076 40.8449 27.0666H32.8668C31.3291 27.0684 29.8549 27.68 28.7675 28.7673C27.6802 29.8547 27.0686 31.3289 27.0668 32.8666ZM52.2002 83.1333H44.4668C43.4413 83.1333 42.4578 82.7259 41.7327 82.0008C41.0075 81.2756 40.6002 80.2921 40.6002 79.2666C40.6002 78.2411 41.0075 77.2576 41.7327 76.5325C42.4578 75.8073 43.4413 75.3999 44.4668 75.3999H52.2002C53.2257 75.3999 54.2092 75.8073 54.9343 76.5325C55.6594 77.2576 56.0668 78.2411 56.0668 79.2666C56.0668 80.2921 55.6594 81.2756 54.9343 82.0008C54.2092 82.7259 53.2257 83.1333 52.2002 83.1333ZM81.2002 76.1478V83.1333H67.6668V74.7729C69.3061 74.2833 71.0701 74.4344 72.6022 75.1958L73.2655 75.5275C75.7267 76.7668 78.5763 76.9895 81.2002 76.1478ZM71.5335 46.3999H81.2002V52.1999H71.5335V46.3999ZM52.2002 44.8568L60.3147 50.2666L52.2002 55.6764L44.0856 50.2666L52.2002 44.8568ZM36.696 54.5124L37.1585 52.1999H40.0149L50.2668 59.0346V61.8666C50.2662 62.3792 50.0624 62.8706 49.6999 63.233C49.3375 63.5955 48.8461 63.7994 48.3335 63.7999H32.8668C32.3542 63.7994 31.8628 63.5955 31.5004 63.233C31.1379 62.8706 30.9341 62.3792 30.9335 61.8666V56.0666H34.8002C35.2471 56.0666 35.6802 55.9117 36.0259 55.6284C36.3715 55.345 36.6083 54.9507 36.696 54.5124ZM33.2152 52.1999H23.6251L24.7851 46.3999H34.3752L33.2152 52.1999ZM48.3335 25.1333H56.0668C57.0923 25.1333 58.0758 25.5406 58.801 26.2658C59.5261 26.9909 59.9335 27.9744 59.9335 28.9999C59.9335 30.0254 59.5261 31.0089 58.801 31.7341C58.0758 32.4592 57.0923 32.8666 56.0668 32.8666H48.3335C47.308 32.8666 46.3245 32.4592 45.5993 31.7341C44.8742 31.0089 44.4668 30.0254 44.4668 28.9999C44.4668 27.9744 44.8742 26.9909 45.5993 26.2658C46.3245 25.5406 47.308 25.1333 48.3335 25.1333Z" fill="white"/>
<path d="M38.6667 11.5996H34.8V15.4663H38.6667V11.5996Z" fill="white"/>
<path d="M69.5998 11.5996H65.7332V15.4663H69.5998V11.5996Z" fill="white"/>
<path d="M61.8668 11.5996H42.5334V15.4663H61.8668V11.5996Z" fill="white"/>
</svg>
