<svg width="116" height="116" viewBox="0 0 116 116" fill="none" xmlns="http://www.w3.org/2000/svg">
<path d="M96.9087 93.3312C97.3679 92.9204 97.8512 92.5337 98.2862 92.0746C104.962 85.4576 108.831 76.5226 109.089 67.1267C109.347 57.7308 105.975 48.5969 99.6724 41.6233C93.3702 34.6497 84.623 30.3729 75.2491 29.6819C65.8751 28.991 56.5953 31.9389 49.3387 37.913C42.082 43.8871 37.4066 52.4278 36.2842 61.76C35.1619 71.0921 37.6789 80.4979 43.3122 88.0222C48.9454 95.5465 57.2616 100.611 66.5321 102.162C75.8026 103.713 85.3144 101.632 93.0904 96.3521L112.013 115.275L115.42 111.867L96.9087 93.3312ZM50.5329 88.6671C46.1375 84.274 43.1438 78.6761 41.9302 72.5815C40.7167 66.4868 41.3379 60.1691 43.7152 54.4275C46.0926 48.6859 50.1194 43.7783 55.2862 40.3255C60.453 36.8727 66.5277 35.0297 72.742 35.0297C78.9563 35.0297 85.0311 36.8727 90.1979 40.3255C95.3647 43.7783 99.3914 48.6859 101.769 54.4275C104.146 60.1691 104.767 66.4868 103.554 72.5815C102.34 78.6761 99.3465 84.274 94.9512 88.6671C89.0599 94.5553 81.0714 97.863 72.742 97.863C64.4126 97.863 56.4242 94.5553 50.5329 88.6671Z" fill="white"/>
<path d="M94.4921 66.1211C94.4894 69.643 93.603 73.108 91.9142 76.1986C90.2253 79.2892 87.788 81.9066 84.8254 83.8111V79.6061C84.9249 77.833 84.3207 76.0923 83.1443 74.762C81.9678 73.4317 80.3141 72.6192 78.5421 72.5011H66.9421C65.1702 72.6192 63.5164 73.4317 62.3399 74.762C61.1635 76.0923 60.5594 77.833 60.6588 79.6061V89.4178H65.4921V79.6061C65.4921 78.3011 66.2654 77.3344 66.9421 77.3344H78.5421C79.2188 77.3344 79.9921 78.3011 79.9921 79.6061V86.1069C77.8794 86.807 75.6686 87.1659 73.4429 87.1703V92.0036C77.32 91.997 81.1453 91.113 84.6321 89.4178H84.8254C89.1702 87.2872 92.8313 83.9823 95.394 79.8776C97.9568 75.773 99.3187 71.0326 99.3254 66.1936L94.4921 66.1211Z" fill="white"/>
<path d="M72.7424 70.0833C74.6542 70.0833 76.5232 69.5164 78.1129 68.4542C79.7025 67.392 80.9415 65.8823 81.6732 64.1159C82.4048 62.3496 82.5963 60.4059 82.2233 58.5308C81.8503 56.6556 80.9296 54.9332 79.5777 53.5813C78.2258 52.2294 76.5034 51.3087 74.6282 50.9357C72.7531 50.5628 70.8094 50.7542 69.0431 51.4858C67.2767 52.2175 65.767 53.4565 64.7048 55.0462C63.6426 56.6358 63.0757 58.5048 63.0757 60.4167C63.0757 62.9804 64.0941 65.4392 65.907 67.252C67.7198 69.0649 70.1786 70.0833 72.7424 70.0833ZM72.7424 55.5833C73.6983 55.5833 74.6328 55.8668 75.4276 56.3979C76.2224 56.929 76.8419 57.6839 77.2078 58.567C77.5736 59.4502 77.6693 60.422 77.4828 61.3596C77.2963 62.2972 76.836 63.1584 76.16 63.8344C75.4841 64.5103 74.6229 64.9706 73.6853 65.1571C72.7477 65.3436 71.7759 65.2479 70.8927 64.8821C70.0095 64.5163 69.2547 63.8968 68.7236 63.1019C68.1925 62.3071 67.909 61.3726 67.909 60.4167C67.909 59.1348 68.4182 57.9054 69.3247 56.999C70.2311 56.0926 71.4605 55.5833 72.7424 55.5833Z" fill="white"/>
<path d="M82.4087 108.75C82.4087 109.391 82.154 110.006 81.7008 110.459C81.2476 110.912 80.6329 111.167 79.992 111.167H7.49198C6.85104 111.167 6.23635 110.912 5.78314 110.459C5.32993 110.006 5.07531 109.391 5.07531 108.75V27.5742L24.4086 8.24083V21.75C24.4086 22.3909 24.154 23.0056 23.7008 23.4588C23.2476 23.9121 22.6329 24.1667 21.992 24.1667H14.742V29H21.992C23.9148 29 25.7589 28.2362 27.1185 26.8765C28.4781 25.5169 29.242 23.6728 29.242 21.75V4.83333H79.992C80.6329 4.83333 81.2476 5.08795 81.7008 5.54116C82.154 5.99437 82.4087 6.60906 82.4087 7.25V26.5833H87.242V7.25C87.242 5.32718 86.4781 3.48311 85.1185 2.12348C83.7589 0.763837 81.9148 0 79.992 0L26.6803 0C26.4664 0.0122505 26.2551 0.0528844 26.052 0.120833H25.8345C25.5741 0.239203 25.3368 0.402853 25.1336 0.604167L0.96698 24.7708C0.72673 25.0059 0.538163 25.2885 0.413327 25.6006C0.288491 25.9127 0.230132 26.2474 0.24198 26.5833V108.75C0.24198 110.673 1.00582 112.517 2.36546 113.877C3.7251 115.236 5.56916 116 7.49198 116H79.992C81.9148 116 83.7589 115.236 85.1185 113.877C86.4781 112.517 87.242 110.673 87.242 108.75V106.333H82.4087V108.75Z" fill="white"/>
<path d="M9.90894 103.917C9.90894 104.558 10.1635 105.172 10.6168 105.626C11.07 106.079 11.6847 106.333 12.3256 106.333H21.9923V101.5H14.7423V94.25H9.90894V103.917Z" fill="white"/>
<path d="M14.7423 84.5835H9.90894V89.4168H14.7423V84.5835Z" fill="white"/>
</svg>
